<svg t="1677641230069" class="icon" viewBox="0 0 1024 1024" version="1.1" xmlns="http://www.w3.org/2000/svg" p-id="50458" width="200" height="200"><path d="M248 319.6c-4.1-1.6-38 53.7-40.4 57.6-57.7 91.1-109.4 206.6-90.4 317.8 10.1 58.8 43.3 111.4 91 147 55.9 41.7 126.9 51.7 194.6 56.5 88.9 6.3 180.7 10.6 269.7-4 73.2-12 153.2-39.9 197.6-103.2 40.4-57.5 49.2-138.4 36.3-205.1-15.6-80.8-57.7-149.9-96.8-221.8-7.7-14.2-15.6-28.2-23.7-42.1-0.9-1.5-2.6-2.2-4.3-1.7-30.8 9.2-310.2 89.4-533.6-1z" fill="#E12D38" p-id="50459"></path><path d="M395.8 176.5c-5.8 7.2-15.2 10.4-24.2 8.3-33.6-7.8-113-23.8-134.6-5.2-24.8 21.3-30 48-21 74.9 9 27 30.3 44.8 33.7 47.4 9 6.8 234.2 81.2 515.5 5 3.7-1 7.1-2.8 10-5.4 11.8-10.6 41.7-41.3 38.9-78-1.4-18-12.5-33.8-29-41.2-22-9.9-63.5-17.7-136.7 1.8-9.3 2.5-19.3-0.7-25.4-8.2-18.2-22.1-59.9-65.6-105.7-65.6-60.4 0.1-103.7 44.3-121.5 66.2z" fill="#E12D38" p-id="50460"></path><path d="M512.6 481.2c-72.2 0-130.6 58.5-130.6 130.6 0 72.2 58.5 130.6 130.6 130.6S643.3 684 643.3 611.8c0-72.1-58.5-130.6-130.7-130.6z m71.2 135.9l-30.5 17.5c-6.9 4-12.5 9.8-16.2 16.9l-16.2 31.2c-2.8 5.4-10.5 5.5-13.5 0.3l-17.5-30.5c-4-6.9-9.8-12.5-16.9-16.2L441.8 620c-5.4-2.8-5.5-10.5-0.3-13.5L472 589c6.9-4 12.5-9.8 16.2-16.9l16.2-31.2c2.8-5.4 10.5-5.5 13.5-0.3l17.5 30.5c4 6.9 9.8 12.5 16.9 16.2l31.2 16.2c5.4 2.9 5.5 10.6 0.3 13.6z" fill="#FED338" p-id="50461"></path></svg>